<?xml version="1.0" encoding="UTF-8"?>
<svg version="1.1" xmlns="http://www.w3.org/2000/svg" width="32" height="32">
<path d="M0 0 C10.56 0 21.12 0 32 0 C32 10.56 32 21.12 32 32 C21.44 32 10.88 32 0 32 C0 21.44 0 10.88 0 0 Z " fill="#FFB94E" transform="translate(0,0)"/>
<path d="M0 0 C0.886875 -0.01417969 1.77375 -0.02835937 2.6875 -0.04296875 C5 0.1875 5 0.1875 7 2.1875 C7.50529653 6.83622812 6.76177549 8.58518414 4 12.1875 C4.21717352 14.39550528 4.21717352 14.39550528 5 16.1875 C6.65 15.5275 8.3 14.8675 10 14.1875 C9.42655063 17.05474686 9.1385485 18.0489515 7 20.1875 C4.4375 20.375 4.4375 20.375 2 20.1875 C0.03177114 18.21927114 0.33751619 14.83941291 0 12.1875 C-0.99 12.1875 -1.98 12.1875 -3 12.1875 C-3.33 14.8275 -3.66 17.4675 -4 20.1875 C-5.32 20.1875 -6.64 20.1875 -8 20.1875 C-8.5326514 13.928846 -6.81849506 9.73641215 -4 4.1875 C-3.34 4.1875 -2.68 4.1875 -2 4.1875 C-2 5.8375 -2 7.4875 -2 9.1875 C-0.68 8.8575 0.64 8.5275 2 8.1875 C2 6.5375 2 4.8875 2 3.1875 C-1.5219721 3.10745518 -4.61981469 3.14744298 -8 4.1875 C-7.67 3.1975 -7.34 2.2075 -7 1.1875 C-4.52224905 -0.05137548 -2.76346293 0.02008331 0 0 Z " fill="#FFF9F1" transform="translate(15,5.8125)"/>
</svg>
